<?xml version="1.0" encoding="utf-8"?>
<!-- Generator: Adobe Illustrator 21.0.2, SVG Export Plug-In . SVG Version: 6.00 Build 0)  -->
<svg version="1.1" id="Livello_1" xmlns="http://www.w3.org/2000/svg" xmlns:xlink="http://www.w3.org/1999/xlink" x="0px" y="0px"
	 viewBox="0 0 1920 1080" style="enable-background:new 0 0 1920 1080;" xml:space="preserve">
<path d="M43.6,354.5h102.7c59.3,0,119,24.4,119,91.9c0,41.5-20.5,66.7-48.1,82.7c38.3,17.1,66.2,45.7,66.2,97.4
	c0,74.1-59.3,99-117.9,99H43.6V354.5z M146.3,517.9c41.8,0,75.6-19.4,75.6-65.9c0-48.1-34.7-60.1-75.1-60.1H84.3v126H146.3z
	 M166.5,687c39.7,0,75.9-13.1,75.9-62.8c0-53.3-36-69.1-75.1-69.1h-83V687H166.5z"/>
<path d="M552.3,463.2h39.9v262.3h-39.9V463.2z"/>
<path d="M655.5,595.8c0-70.4,38.1-136,113.4-136c85.9,0,111.9,66.4,111.9,137.9c0,3.2-1.3,10-1.3,10H696.8
	c-0.5,46.5,25.5,86.4,76.2,86.4c31.3,0,53.8-5.8,74.3-27.3l26.8,21.5c-28.9,28.9-58.6,40.4-100.6,40.4
	C694.1,728.7,655.5,667.3,655.5,595.8z M843.3,575.6c0.3-47.5-23.9-80.9-74.3-80.9c-47.5,0-70.4,36.5-72.2,80.9H843.3z"/>
<path d="M959.5,495.3h-47.8v-31.5h48.1v-44.6c0-47.3,32.3-70.1,70.9-70.1c16,0,30.7,3.9,43.1,10l-9.5,31.2
	c-10.5-5-21.3-8.1-30.7-8.1c-20.2,0-34.9,12.3-34.9,39.1v42h75.4v32h-75.4v230.3h-39.1V495.3z"/>
<path d="M1103.4,595.8c0-70.4,38.1-136,113.4-136c85.9,0,111.9,66.4,111.9,137.9c0,3.2-1.3,10-1.3,10h-182.8
	c-0.5,46.5,25.5,86.4,76.2,86.4c31.3,0,53.8-5.8,74.3-27.3l26.8,21.5c-28.9,28.9-58.6,40.4-100.6,40.4
	C1142,728.7,1103.4,667.3,1103.4,595.8z M1291.1,575.6c0.3-47.5-23.9-80.9-74.3-80.9c-47.5,0-70.4,36.5-72.2,80.9H1291.1z"/>
<path d="M1375.9,595.8c0-70.4,38.1-136,113.4-136c85.9,0,111.9,66.4,111.9,137.9c0,3.2-1.3,10-1.3,10h-182.8
	c-0.5,46.5,25.5,86.4,76.2,86.4c31.3,0,53.8-5.8,74.3-27.3l26.8,21.5c-28.9,28.9-58.6,40.4-100.6,40.4
	C1414.5,728.7,1375.9,667.3,1375.9,595.8z M1563.7,575.6c0.3-47.5-23.9-80.9-74.3-80.9c-47.5,0-70.4,36.5-72.2,80.9H1563.7z"/>
<path d="M1876.1,354.5v371.1h-38.1l-0.8-36.5c-17.3,24.9-42.5,41.8-82.2,41.8c-67.2,0-105.3-61.7-105.3-136.6
	c0-75.1,38.1-136.6,105-136.6c38.3,0,64.9,16,82.2,41.2V354.5H1876.1z M1840.2,594.3c0-53-21.5-100.3-75.1-100.3
	c-52.5,0-75.1,47.3-75.1,100.3c0,53.6,22.6,100.8,75.1,100.8C1818.6,695.1,1840.2,648.1,1840.2,594.3z"/>
<rect x="550.3" y="354.5" width="43.9" height="43.9"/>
<path d="M493,464.5c-10.1-3.5-21.5-5.2-30.2-5.2c-30.5,0-66.2,20.2-74.6,54.9v-50.9H348v262.3h39.7V614
	c0-66.2,24.2-121.1,72.2-121.1c10.9,0,23.4,3.1,33.1,11.6V464.5z"/>
</svg>
